<svg width="58" height="26" viewBox="0 0 58 26" fill="none" xmlns="http://www.w3.org/2000/svg">
<path d="M45.6974 11.0917L44.5047 10.6148C38.8996 23.2267 16.6014 15.5593 15.2595 19.3111C15.0358 21.8455 27.4365 19.793 36.3017 20.2226C39.0051 20.3535 40.3608 22.3943 39.2129 25.7207L41.4739 25.7276C44.0821 17.5967 52.406 21.7462 52.7538 19.0628C52.1823 17.2985 43.1877 19.0628 45.6974 11.0917Z" fill="white"/>
<path d="M39.8533 24.3302C40.211 23.1378 40.0917 21.945 39.4955 21.2293C38.8991 20.5136 38.0642 20.0369 36.9908 19.9174L16.2385 19.6787C16.1193 19.6787 16 19.5597 15.8808 19.5597C15.7615 19.4403 15.7615 19.321 15.8808 19.2018C16 18.9633 16.1193 18.8438 16.3577 18.8438L37.2293 18.6054C39.734 18.4864 42.358 16.4586 43.3119 14.0734L44.5047 10.9725C44.5047 10.853 44.624 10.734 44.5047 10.6148C43.1927 4.53222 37.7065 0 31.266 0C25.3027 0 20.1743 3.81633 18.3852 9.18345C17.1926 8.34855 15.7615 7.87136 14.0917 7.99105C11.2293 8.22931 8.96332 10.6145 8.60538 13.477C8.48614 14.1926 8.60538 14.9083 8.72485 15.6237C4.07339 15.743 0.256836 19.5595 0.256836 24.3302C0.256836 24.8072 0.256836 25.1651 0.376075 25.6421C0.376075 25.8808 0.614554 26 0.734018 26H39.0184C39.2568 26 39.4955 25.881 39.4955 25.6421L39.8533 24.3302Z" fill="#F4811F"/>
<path d="M46.413 10.9725H45.8166C45.6973 10.9725 45.5781 11.0915 45.4589 11.211L44.624 14.0734C44.2662 15.2658 44.3855 16.4588 44.9819 17.1743C45.5781 17.8899 46.413 18.3667 47.4864 18.4864L51.8994 18.7248C52.0184 18.7248 52.1378 18.8438 52.2571 18.8438C52.3761 18.9633 52.3761 19.0826 52.2571 19.2018C52.1378 19.4405 52.0186 19.5597 51.7799 19.5597L47.2479 19.7982C44.7432 19.9172 42.1195 21.945 41.1653 24.3302L40.9266 25.4036C40.8074 25.523 40.9266 25.7615 41.1653 25.7615H56.9085C57.147 25.7615 57.2662 25.6423 57.2662 25.4038C57.5047 24.4494 57.7432 23.3761 57.7432 22.3027C57.7432 16.1009 52.6148 10.9725 46.413 10.9725Z" fill="#FAAD3F"/>
</svg>
