<svg width="31" height="32" viewBox="0 0 31 32" fill="none" xmlns="http://www.w3.org/2000/svg">
<path d="M30.9375 0L28.2044 28.7967L15.9191 32L3.66768 28.8012L0.9375 0H30.9375Z" fill="#264DE4"/>
<path d="M25.8646 26.963L28.2002 2.35492H15.9375V29.5515L25.8646 26.963Z" fill="#2965F1"/>
<path d="M7.19639 13.0369L7.533 16.5692H15.9375V13.0369H7.19639Z" fill="#EBEBEB"/>
<path d="M15.9375 5.88727H15.9245H6.52003L6.86143 9.41965H15.9375V5.88727Z" fill="#EBEBEB"/>
<path d="M15.9375 25.8858V22.2107L15.921 22.2148L11.7383 21.1525L11.4709 18.3353H7.7008L8.22697 23.8816L15.9202 25.8903L15.9375 25.8858Z" fill="#EBEBEB"/>
<path d="M20.5492 16.5691L20.1133 21.1503L15.9245 22.2137V25.8886L23.6239 23.8816L24.5629 13.9854L24.6546 13.0368L25.3326 5.88727H15.9245L15.9245 9.41965H21.2167L20.8749 13.0368H15.9245V16.5691H20.5492Z" fill="white"/>
</svg>
