<svg width="30" height="32" viewBox="0 0 30 32" fill="none" xmlns="http://www.w3.org/2000/svg">
<path d="M10.6667 32C13.6107 32 16 29.6107 16 26.6667V21.3334H10.6667C7.72271 21.3334 5.33337 23.7227 5.33337 26.6667C5.33337 29.6107 7.72271 32 10.6667 32Z" fill="#0ACF83"/>
<path d="M5.33337 16C5.33337 13.056 7.72271 10.6666 10.6667 10.6666H16V21.3334H10.6667C7.72271 21.3334 5.33337 18.944 5.33337 16Z" fill="#A259FF"/>
<path d="M5.33337 5.33333C5.33337 2.38933 7.72271 0 10.6667 0H16V10.6666H10.6667C7.72271 10.6666 5.33337 8.27733 5.33337 5.33333Z" fill="#F24E1E"/>
<path d="M16 0H21.3334C24.2774 0 26.6667 2.38933 26.6667 5.33333C26.6667 8.27733 24.2774 10.6667 21.3334 10.6667L16 10.6666V0Z" fill="#FF7262"/>
<path d="M26.6667 16C26.6667 18.944 24.2774 21.3333 21.3334 21.3333C18.3894 21.3333 16 18.944 16 16C16 13.056 18.3894 10.6667 21.3334 10.6667C24.2774 10.6667 26.6667 13.056 26.6667 16Z" fill="#1ABCFE"/>
</svg>
