<svg width="31" height="32" viewBox="0 0 31 32" fill="none" xmlns="http://www.w3.org/2000/svg">
<path d="M30.9375 0H0.9375V32H30.9375V0Z" fill="#F7DF1E"/>
<path d="M21.0899 25.0001C21.6942 26.0526 22.4804 26.8262 23.8708 26.8262C25.0389 26.8262 25.7851 26.2034 25.7851 25.343C25.7851 24.3119 25.0184 23.9467 23.7327 23.3468L23.028 23.0243C20.9937 22.0998 19.6423 20.9417 19.6423 18.4935C19.6423 16.2382 21.2532 14.5214 23.7708 14.5214C25.5632 14.5214 26.8518 15.1868 27.7804 16.929L25.5851 18.4325C25.1018 17.5081 24.5804 17.1439 23.7708 17.1439C22.9451 17.1439 22.4218 17.7026 22.4218 18.4325C22.4218 19.3346 22.9456 19.6998 24.1551 20.2585L24.8599 20.5806C27.2551 21.6762 28.6075 22.7932 28.6075 25.3044C28.6075 28.0117 26.6137 29.4949 23.9361 29.4949C21.318 29.4949 19.6265 28.1641 18.7989 26.4198L21.0899 25.0001ZM11.1313 25.2607C11.5742 26.0988 11.977 26.8074 12.9456 26.8074C13.8718 26.8074 14.4561 26.4208 14.4561 24.9179V14.6931H17.2751V24.9585C17.2751 28.0721 15.5637 29.4893 13.0656 29.4893C10.8084 29.4893 9.5013 28.2433 8.83654 26.7426L11.1313 25.2607Z" fill="black"/>
</svg>
