<svg width="30" height="32" viewBox="0 0 30 32" fill="none" xmlns="http://www.w3.org/2000/svg">
<path d="M15.0465 0.0873828L15.9004 1.69126C16.0924 1.98724 16.3004 2.24922 16.5454 2.4932C17.2636 3.20248 17.9331 3.95948 18.5493 4.75903C19.9962 6.65889 20.9721 8.76873 21.669 11.0506C22.087 12.4445 22.314 13.8743 22.331 15.3202C22.401 19.6429 20.9191 23.3546 17.9313 26.4394C17.4453 26.9286 16.9203 27.3774 16.3614 27.7813C16.0654 27.7813 15.9254 27.5543 15.8035 27.3453C15.5813 26.9578 15.4334 26.5322 15.3675 26.0904C15.2625 25.5675 15.1935 25.0445 15.2275 24.5046V24.2606C15.2035 24.2086 14.9425 0.210374 15.0465 0.0873828Z" fill="#599636"/>
<path d="M15.0465 0.0344005C15.0115 -0.0355943 14.9765 0.0174017 14.9415 0.0513992C14.9585 0.401373 14.8365 0.71335 14.6455 1.01133C14.4356 1.30731 14.1576 1.53429 13.8786 1.77827C12.3287 3.12017 11.1088 4.74105 10.1319 6.55392C8.83197 8.99374 8.16202 11.6085 7.97204 14.3613C7.88504 15.3543 8.28601 18.858 8.59899 19.8689C9.45293 22.5527 10.9868 24.8016 12.9737 26.7534C13.4616 27.2234 13.9836 27.6593 14.5236 28.0783C14.6805 28.0783 14.6975 27.9383 14.7335 27.8343C14.8024 27.6118 14.8548 27.3846 14.8905 27.1544L15.2405 24.5406L15.0465 0.0344005Z" fill="#6CAC48"/>
<path d="M15.9005 28.8433C15.9354 28.4433 16.1274 28.1113 16.3364 27.7803C16.1264 27.6933 15.9704 27.5204 15.8485 27.3274C15.7433 27.1447 15.6562 26.9521 15.5885 26.7524C15.3445 26.0205 15.2925 25.2525 15.2225 24.5046V24.0516C15.1355 24.1216 15.1175 24.7136 15.1175 24.8016C15.0666 25.5921 14.9617 26.3782 14.8035 27.1544C14.7515 27.4684 14.7165 27.7813 14.5235 28.0603C14.5235 28.0953 14.5235 28.1303 14.5405 28.1823C14.8545 29.1062 14.9405 30.0472 14.9935 31.0061V31.3561C14.9935 31.774 14.9765 31.686 15.3235 31.826C15.4635 31.878 15.6195 31.896 15.7595 32C15.8645 32 15.8815 31.913 15.8815 31.843L15.8295 31.2681V29.6642C15.8125 29.3842 15.8645 29.1062 15.8995 28.8443L15.9005 28.8433Z" fill="#C2BFBF"/>
</svg>
