<svg width="30" height="32" viewBox="0 0 30 32" fill="none" xmlns="http://www.w3.org/2000/svg">
<path d="M27.6331 24.7498C26.0009 24.7056 24.7358 24.883 23.6748 25.3707C23.3687 25.5036 22.879 25.5038 22.8382 25.9251C23.0014 26.1025 23.0218 26.3907 23.1647 26.6345C23.4098 27.0779 23.8379 27.6766 24.2257 27.9871C24.6541 28.3418 25.0827 28.6964 25.5314 29.0069C26.3273 29.5391 27.2251 29.8494 28.0004 30.3815C28.4495 30.6917 28.8981 31.0911 29.347 31.4236C29.5715 31.6007 29.7142 31.8893 30 32V31.9336C29.857 31.7339 29.8162 31.4458 29.6735 31.224C29.4697 31.0023 29.2654 30.8027 29.0613 30.581C28.4697 29.7165 27.7352 28.9625 26.9394 28.3418C26.2866 27.854 24.8581 27.1889 24.593 26.3684C24.593 26.3684 24.5724 26.3464 24.5522 26.3242C25.001 26.2799 25.5314 26.1025 25.9601 25.9694C26.6537 25.7697 27.2862 25.8142 28.0004 25.6146C28.3268 25.5259 28.6533 25.4151 28.9797 25.3042V25.1048C28.6126 24.7056 28.3473 24.1736 27.9596 23.7966C26.919 22.8208 25.7763 21.8676 24.593 21.0695C23.9604 20.626 23.1441 20.3377 22.4708 19.9609C22.2262 19.8277 21.818 19.7613 21.6752 19.5396C21.3078 19.0519 21.1038 18.4089 20.8386 17.8324C20.247 16.6128 19.6756 15.2605 19.1654 13.9746C18.7983 13.1098 18.5739 12.2451 18.1249 11.447C16.0233 7.67783 13.7381 5.39415 10.2287 3.1547C9.47367 2.68917 8.57592 2.4896 7.61695 2.24582C7.10703 2.22352 6.59676 2.17929 6.08673 2.15699C5.76023 2.00177 5.43373 1.58059 5.14805 1.38103C3.98525 0.582761 0.985666 -1.14644 0.128727 1.13724C-0.422238 2.5783 0.944971 3.99719 1.41408 4.72906C1.76122 5.23894 2.20992 5.81534 2.45479 6.39186C2.59763 6.76857 2.63833 7.16795 2.78117 7.56696C3.10779 8.54224 3.41364 9.6289 3.84229 10.538C4.06676 11.0036 4.31151 11.4913 4.5972 11.9126C4.76045 12.1564 5.04602 12.2674 5.10735 12.6664C4.82178 13.1098 4.80126 13.7751 4.63789 14.3293C3.90339 16.8347 4.18919 19.9387 5.22967 21.7789C5.55605 22.333 6.33148 23.5528 7.37208 23.087C8.29035 22.688 8.08629 21.4242 8.35134 20.3157C8.41279 20.0493 8.37198 19.8722 8.4943 19.6948V19.7393C8.77998 20.3599 9.06555 20.9587 9.33083 21.5795C9.96342 22.6657 11.0651 23.7966 11.9833 24.5505C12.4731 24.9494 12.8607 25.6368 13.4729 25.8807V25.8141H13.432C13.3096 25.6145 13.1259 25.5259 12.9628 25.3706C12.5956 24.9717 12.1873 24.4839 11.9018 24.0404C11.0449 22.7986 10.2898 21.4241 9.61652 20.0051C9.29014 19.318 9.00433 18.564 8.73917 17.8768C8.61662 17.6104 8.61662 17.2115 8.41267 17.0786C8.10658 17.5663 7.65776 17.9876 7.4333 18.5862C7.04581 19.5396 7.00489 20.7147 6.86204 21.934C6.78042 21.9564 6.82111 21.934 6.7803 21.9786C6.12754 21.8009 5.90307 21.0695 5.65808 20.4486C5.0459 18.8745 4.94387 16.3469 5.47454 14.5289C5.61739 14.0632 6.22957 12.6 5.9847 12.1565C5.86226 11.7352 5.45402 11.4913 5.22967 11.1588C4.96451 10.7375 4.67871 10.2056 4.49517 9.73977C4.00542 8.49815 3.76055 7.12348 3.2301 5.88186C2.98523 5.30533 2.55694 4.70689 2.20992 4.17471C1.82232 3.57613 1.39379 3.1547 1.0877 2.44526C0.985784 2.20147 0.842824 1.80234 1.00607 1.53625C1.04688 1.35885 1.12839 1.29246 1.29176 1.24811C1.55704 1.00407 2.31206 1.31451 2.57711 1.44755C3.33214 1.77991 3.96461 2.0906 4.5972 2.55613C4.88277 2.77787 5.18886 3.19918 5.55605 3.31005H5.98458C6.63758 3.46514 7.37196 3.35439 7.98414 3.55383C9.06567 3.93067 10.0449 4.48502 10.9224 5.08372C13.5954 6.92391 15.7987 9.5402 17.2884 12.6664C17.5333 13.1761 17.6352 13.642 17.8596 14.1739C18.2883 15.2605 18.8187 16.3691 19.247 17.4333C19.6756 18.4752 20.0836 19.5396 20.6957 20.4044C21.0018 20.8698 22.226 21.1138 22.7769 21.3577C23.1851 21.5572 23.8176 21.7347 24.1848 21.9785C24.8785 22.4439 25.5722 22.9763 26.2252 23.486C26.5517 23.7521 27.5718 24.3065 27.6331 24.7498Z" fill="#00546B"/>
<path d="M6.821 5.4826C6.47421 5.4826 6.22946 5.5272 5.98458 5.5936V5.63795H6.02539C6.18876 5.99273 6.47421 6.23665 6.67815 6.54696C6.84152 6.90161 6.98425 7.25653 7.14761 7.61131C7.1679 7.58901 7.18831 7.56696 7.18831 7.56696C7.47411 7.3451 7.61683 6.99044 7.61683 6.45826C7.4944 6.30317 7.47399 6.14795 7.37196 5.99273C7.24964 5.77086 6.98425 5.66012 6.821 5.4826Z" fill="#00546B"/>
</svg>
