<svg width="30" height="32" viewBox="0 0 30 32" fill="none" xmlns="http://www.w3.org/2000/svg">
<path d="M13.6464 0.341395C14.4662 -0.112772 15.5339 -0.114823 16.3529 0.341395C20.4733 2.59502 24.5949 4.84511 28.7146 7.10011C29.4895 7.52259 30.0078 8.3573 29.9999 9.22153V22.7802C30.0057 23.6802 29.4362 24.5349 28.6187 24.9478C24.5118 27.189 20.4071 29.4329 16.3009 31.6741C15.4643 32.1372 14.3751 32.1015 13.5646 31.6005C12.3334 30.9096 11.1 30.2222 9.86868 29.532C9.61706 29.3868 9.33342 29.2712 9.15575 29.0351C9.31281 28.8301 9.59363 28.8046 9.82182 28.7151C10.3358 28.557 10.8078 28.303 11.2799 28.0566C11.3993 27.9775 11.5451 28.0079 11.6595 28.0786C12.7124 28.6629 13.7559 29.2642 14.8123 29.843C15.0377 29.9689 15.2659 29.8017 15.4585 29.6978C19.4886 27.4931 23.5236 25.2966 27.553 23.0912C27.7023 23.0217 27.7848 22.8683 27.7727 22.71C27.7755 18.2373 27.7734 13.7638 27.7741 9.29105C27.7912 9.11143 27.6838 8.94629 27.516 8.87278C23.4234 6.64184 19.3329 4.40747 15.241 2.17596C15.1701 2.12878 15.0861 2.10347 15.0001 2.10334C14.9141 2.10322 14.83 2.1283 14.759 2.17527C10.6671 4.40747 6.57731 6.64389 2.48541 8.87472C2.31821 8.94834 2.206 9.11075 2.2259 9.29105C2.22661 13.7638 2.2259 18.2373 2.2259 22.7107C2.21881 22.7879 2.23633 22.8654 2.27612 22.9327C2.31591 23 2.37605 23.0539 2.44844 23.0871C3.54038 23.6865 4.63373 24.2816 5.72638 24.8789C6.34194 25.1997 7.09773 25.3902 7.77592 25.1445C8.37441 24.9367 8.79392 24.3456 8.7825 23.7305C8.78815 19.2839 8.77968 14.8366 8.78674 10.3906C8.77179 10.1932 8.96524 10.0301 9.16352 10.0487C9.68818 10.0453 10.2135 10.0419 10.7382 10.0501C10.9572 10.0453 11.1079 10.2578 11.0808 10.4567C11.0787 14.9315 11.0865 19.4064 11.0773 23.8811C11.0787 25.0737 10.5725 26.3714 9.43291 26.9549C8.02895 27.6589 6.29367 27.5096 4.90666 26.8345C3.70592 26.2544 2.56006 25.5698 1.38063 24.9484C0.561026 24.5377 -0.00566803 23.6796 0.000101341 22.7803V9.22153C-0.00849385 8.33941 0.530413 7.48954 1.32941 7.07321C5.43556 4.83018 9.541 2.58545 13.6464 0.341395Z" fill="#8CC84B"/>
<path d="M17.2286 9.73357C19.0195 9.62199 20.9367 9.66747 22.5482 10.5214C23.7959 11.1758 24.4877 12.5493 24.5097 13.891C24.4748 14.072 24.2794 14.1719 24.1009 14.1594C23.5813 14.1588 23.0616 14.1663 22.542 14.156C22.3216 14.1642 22.1935 13.9675 22.1658 13.7789C22.0165 13.1369 21.6548 12.5011 21.0305 12.1914C20.0722 11.727 18.9611 11.7504 17.9161 11.7601C17.1533 11.7993 16.333 11.8632 15.6867 12.2974C15.1905 12.6263 15.0398 13.2903 15.2169 13.8251C15.3838 14.209 15.8417 14.3329 16.2164 14.4471C18.3746 14.9935 20.6616 14.9391 22.7787 15.6581C23.6551 15.9513 24.5125 16.5211 24.8125 17.4094C25.205 18.5999 25.0329 20.0229 24.1579 20.9787C23.4483 21.7652 22.4147 22.1932 21.3839 22.4257C20.0125 22.7217 18.5894 22.7292 17.1967 22.5978C15.8872 22.4533 14.5244 22.1203 13.5135 21.2566C12.649 20.5301 12.2268 19.398 12.2687 18.3054C12.2787 18.1209 12.4685 17.9922 12.6512 18.0074C13.1744 18.0033 13.6977 18.0019 14.2209 18.0081C14.4299 17.9936 14.5848 18.1684 14.5956 18.3591C14.6921 18.9708 14.9296 19.6128 15.4806 19.9754C16.5441 20.6395 17.8784 20.594 19.0961 20.6126C20.105 20.5693 21.2374 20.5562 22.0607 19.9108C22.495 19.5427 22.6237 18.9268 22.5063 18.3969C22.3792 17.9496 21.8957 17.7412 21.4805 17.6048C19.35 16.9525 17.0374 17.1892 14.9275 16.4515C14.0709 16.1585 13.2426 15.6045 12.9135 14.7527C12.4543 13.5471 12.6647 12.0559 13.6315 11.1324C14.5741 10.2138 15.9349 9.86019 17.2286 9.73357Z" fill="#8CC84B"/>
</svg>
