<svg width="30" height="32" viewBox="0 0 30 32" fill="none" xmlns="http://www.w3.org/2000/svg">
<path d="M29.9206 19.1687C29.7403 18.6037 29.268 18.2101 28.6571 18.1157C28.3691 18.0712 28.0392 18.0902 27.6489 18.1734C26.9685 18.3187 26.4637 18.374 26.0953 18.3847C27.4858 15.9558 28.6165 13.186 29.2674 10.5787C30.3199 6.36279 29.7574 4.44217 29.1002 3.57344C27.3608 1.27399 24.8232 0.0387125 21.7617 0.000915122C20.1285 -0.0197458 18.6948 0.313868 17.9469 0.553778C17.2505 0.426652 16.5018 0.355676 15.7161 0.34255C14.2434 0.318243 12.9422 0.650398 11.8304 1.33306C11.2149 1.1177 10.2269 0.814106 9.08608 0.620379C6.40285 0.164623 4.24025 0.519748 2.65841 1.67591C0.742962 3.07575 -0.144986 5.50791 0.0192354 8.90482C0.0713916 9.98332 0.654508 13.2648 1.57265 16.3768C2.10032 18.1655 2.66299 19.6509 3.24505 20.7922C4.07051 22.4104 4.95375 23.3634 5.94531 23.7056C6.50106 23.8971 7.51082 24.0313 8.57286 23.1162C8.70748 23.2848 8.88709 23.4524 9.12543 23.6081C9.42815 23.8056 9.79829 23.967 10.168 24.0627C11.5002 24.4072 12.7481 24.3211 13.8127 23.8381C13.8193 24.034 13.8243 24.2212 13.8285 24.3828C13.8356 24.6449 13.8426 24.902 13.8519 25.1424C13.915 26.7678 14.0219 28.0316 14.3386 28.9159C14.356 28.9645 14.3793 29.0387 14.404 29.1173C14.562 29.6178 14.8262 30.4557 15.4984 31.1118C16.1944 31.7916 17.0363 32 17.8073 32C18.194 32 18.563 31.9475 18.8866 31.8758C20.0402 31.62 21.3503 31.2303 22.298 29.8341C23.1941 28.5143 23.6297 26.5263 23.7085 23.394C23.7187 23.3054 23.7281 23.2208 23.7372 23.1402L23.756 22.9747L23.967 22.9939L24.0214 22.9977C25.1964 23.0531 26.633 22.7953 27.5153 22.3713C28.2125 22.0366 30.4466 20.8162 29.9206 19.1687Z" fill="black"/>
<path d="M27.9117 19.4891C24.4182 20.2347 24.1779 19.011 24.1779 19.011C27.8665 13.3483 29.4085 6.16033 28.0779 4.4011C24.4476 -0.397713 18.1636 1.87184 18.0587 1.93066L18.025 1.93698C17.3348 1.7887 16.5624 1.70047 15.6942 1.68576C14.1135 1.65903 12.9144 2.11454 12.0045 2.82844C12.0045 2.82844 0.794419 -1.9496 1.31586 8.83762C1.42675 11.1325 4.49505 26.2017 8.15468 21.6501C9.4923 19.9857 10.7848 18.5784 10.7848 18.5784C11.4267 19.0196 12.1951 19.2447 13.0007 19.1639L13.0634 19.1089C13.0439 19.3155 13.0528 19.5177 13.0884 19.757C12.1456 20.8468 12.4227 21.0381 10.538 21.4395C8.6309 21.8461 9.7512 22.57 10.4827 22.7594C11.3695 22.9887 13.4209 23.3137 14.8071 21.306L14.7519 21.5351C15.1212 21.8413 15.3806 23.5262 15.3371 25.0538C15.2936 26.5813 15.2646 27.63 15.5556 28.4492C15.8468 29.2683 16.1368 31.1114 18.6145 30.5622C20.6846 30.1031 21.7575 28.9137 21.9068 26.9295C22.0126 25.5189 22.2524 25.7275 22.2674 24.4663L22.4597 23.8693C22.6814 21.9572 22.495 21.3403 23.7703 21.6273L24.0804 21.6555C25.019 21.6996 26.2477 21.4992 26.9689 21.1524C28.5216 20.4069 29.4428 19.162 27.9117 19.4891Z" fill="#336791"/>
<path d="M12.6607 9.86386C12.3459 9.81853 12.0608 9.86046 11.9165 9.97349C11.8355 10.0371 11.8103 10.1107 11.8035 10.1614C11.7854 10.2957 11.8763 10.4442 11.9323 10.5208C12.0904 10.7376 12.3213 10.8866 12.5499 10.9194C12.583 10.9242 12.616 10.9264 12.6488 10.9264C13.03 10.9264 13.3767 10.6193 13.4072 10.3927C13.4454 10.1088 13.047 9.9194 12.6607 9.86386ZM23.0901 9.87286C23.06 9.65033 22.6773 9.58689 22.3141 9.63915C21.9513 9.69141 21.5996 9.86083 21.629 10.0838C21.6525 10.2573 21.9552 10.5533 22.3135 10.5533C22.3438 10.5533 22.3743 10.5513 22.4051 10.5468C22.6443 10.5125 22.8198 10.3553 22.9032 10.2648C23.03 10.1267 23.1036 9.97288 23.0901 9.87286Z" fill="white"/>
<path d="M29.0742 19.4044C28.941 18.9876 28.5122 18.8536 27.7999 19.0057C25.6849 19.4574 24.9274 19.1445 24.6787 18.9551C26.3227 16.3639 27.6751 13.2317 28.4047 10.3094C28.7503 8.92512 28.9412 7.63952 28.9568 6.59164C28.9741 5.44155 28.7848 4.59639 28.3943 4.08011C26.82 1.99882 24.5093 0.882396 21.7124 0.851769C19.7895 0.829406 18.1649 1.33852 17.85 1.48169C17.1868 1.31105 16.4638 1.20629 15.6766 1.19292C14.2331 1.16873 12.9854 1.52629 11.9524 2.25514C11.5036 2.08231 10.344 1.67043 8.92576 1.43404C6.47394 1.02569 4.52559 1.33512 3.13523 2.35419C1.47621 3.57027 0.710311 5.74405 0.858675 8.81501C0.908599 9.84818 1.47762 13.0266 2.37556 16.0704C3.55753 20.0767 4.84241 22.3447 6.19424 22.8113C6.35248 22.8658 6.53491 22.904 6.73613 22.904C7.22927 22.904 7.83388 22.674 8.46293 21.8916C9.23019 20.9393 10.0239 20.0102 10.843 19.1053C11.3744 19.4004 11.9582 19.5652 12.5553 19.5817C12.5565 19.5979 12.558 19.614 12.5594 19.6301C12.4566 19.7569 12.356 19.8855 12.2575 20.0159C11.8438 20.5593 11.7577 20.6725 10.426 20.9561C10.0471 21.0371 9.04099 21.2516 9.02619 21.9813C9.01022 22.7786 10.2156 23.1134 10.3529 23.1489C10.8315 23.2729 11.2925 23.334 11.7322 23.334C12.8015 23.334 13.7426 22.9703 14.4946 22.2668C14.4715 25.109 14.586 27.9097 14.9159 28.763C15.186 29.4615 15.846 31.1688 17.9306 31.1686C18.2365 31.1686 18.5732 31.1318 18.9435 31.0497C21.1192 30.5672 22.064 29.5723 22.4294 27.3789C22.625 26.2067 22.9606 23.4076 23.1185 21.9062C23.4517 22.0137 23.8805 22.063 24.3442 22.0628C25.3112 22.0628 26.427 21.8503 27.1268 21.5142C27.9129 21.1365 29.3315 20.2097 29.0742 19.4044ZM23.8931 9.25861C23.8859 9.70185 23.827 10.1043 23.7645 10.5243C23.6972 10.976 23.6276 11.4431 23.6101 12.01C23.5928 12.5618 23.6595 13.1355 23.7238 13.6903C23.854 14.8108 23.9875 15.9644 23.4706 17.1027C23.3847 16.9453 23.3082 16.7826 23.2415 16.6155C23.1772 16.4544 23.0377 16.1955 22.8445 15.8372C22.0928 14.4425 20.3325 11.1763 21.2336 9.84356C21.502 9.44687 22.1832 9.039 23.8931 9.25861ZM21.8205 1.74931C24.3266 1.80655 26.309 2.77652 27.7125 4.63213C28.789 6.05543 27.6036 12.5317 24.172 18.1188C24.1375 18.0734 24.1028 18.0281 24.0679 17.983L24.0244 17.9269C24.9112 16.4117 24.7378 14.9126 24.5835 13.5834C24.52 13.038 24.4601 12.5228 24.4754 12.0389C24.4911 11.526 24.5567 11.086 24.6201 10.6606C24.698 10.1365 24.7773 9.59405 24.7554 8.95465C24.7718 8.88756 24.7783 8.80832 24.7698 8.71425C24.714 8.10111 24.0374 6.26605 22.6583 4.60514C21.9039 3.69667 20.8038 2.68002 19.3017 1.99432C19.9478 1.85577 20.8313 1.72658 21.8205 1.74931ZM7.79723 21.3189C7.10416 22.1811 6.62559 22.0158 6.46818 21.9616C5.44268 21.6077 4.25271 19.3651 3.2036 15.809C2.29579 12.732 1.7653 9.6378 1.72325 8.77016C1.59074 6.02613 2.23365 4.11378 3.63424 3.08607C5.91361 1.41375 9.66111 2.41471 11.167 2.92237C11.1453 2.94449 11.1228 2.96515 11.1014 2.98763C8.63032 5.56953 8.68894 9.98077 8.69505 10.2505C8.69481 10.3545 8.70327 10.5018 8.71478 10.7044C8.75731 11.4464 8.83648 12.8273 8.62504 14.391C8.42863 15.8442 8.86162 17.2666 9.81277 18.2934C9.91038 18.3986 10.013 18.4987 10.1202 18.5934C9.69682 19.0625 8.77669 20.0999 7.79723 21.3189ZM10.4378 17.6737C9.67122 16.8461 9.32304 15.6949 9.48244 14.515C9.70564 12.8631 9.62329 11.4244 9.579 10.6514C9.57278 10.5432 9.56726 10.4484 9.56408 10.3737C9.92507 10.0425 11.5979 9.1152 12.791 9.39801C13.3353 9.52696 13.6671 9.91053 13.805 10.5702C14.5187 13.9857 13.8994 15.4093 13.4018 16.5533C13.2993 16.7889 13.2023 17.0117 13.1196 17.2421L13.0555 17.4203C12.8932 17.8707 12.7421 18.2895 12.6485 18.6872C11.8335 18.6848 11.0407 18.3247 10.4378 17.6737ZM10.5629 22.2799C10.3249 22.2184 10.1109 22.1116 9.98533 22.023C10.0902 21.9719 10.2769 21.9024 10.6006 21.8334C12.1673 21.4998 12.4093 21.2642 12.9377 20.5701C13.0588 20.4109 13.1961 20.2306 13.3863 20.0108L13.3865 20.0106C13.6698 19.6825 13.7993 19.7381 14.0343 19.839C14.2247 19.9204 14.4102 20.1674 14.4853 20.4391C14.5209 20.5675 14.5609 20.811 14.4301 21.0006C13.3264 22.5995 11.718 22.579 10.5629 22.2799ZM18.7622 30.1739C16.8455 30.5988 16.1669 29.587 15.7197 28.4303C15.4311 27.6836 15.2892 24.3164 15.3899 20.5977C15.3911 20.5483 15.3843 20.5005 15.3712 20.4555C15.3594 20.3667 15.3415 20.2789 15.3176 20.1928C15.168 19.6517 14.8032 19.1991 14.3656 19.0115C14.1918 18.937 13.8727 18.8002 13.4893 18.9017C13.5711 18.5531 13.7129 18.1595 13.8666 17.7333L13.9311 17.554C14.0037 17.3519 14.0949 17.1425 14.1912 16.9208C14.7119 15.7239 15.4251 14.0845 14.6511 10.381C14.3612 8.99378 13.393 8.31635 11.9253 8.47373C11.0455 8.56793 10.2405 8.9352 9.83896 9.14583C9.75262 9.19104 9.67368 9.23479 9.59991 9.27733C9.71198 7.87967 10.1353 5.26763 11.7191 3.615C12.7163 2.57465 14.0442 2.0608 15.6623 2.08851C18.8504 2.14247 20.8948 3.83522 22.0486 5.24588C23.0429 6.46135 23.5812 7.68582 23.7961 8.34624C22.1803 8.17622 21.0814 8.50618 20.5243 9.33019C19.3124 11.1226 21.1873 14.6014 22.0884 16.2734C22.2537 16.5798 22.3963 16.8446 22.4412 16.9571C22.7346 17.6929 23.1145 18.1842 23.3919 18.5427C23.4769 18.6526 23.5594 18.7591 23.6221 18.8522C23.1327 18.9982 22.2537 19.3355 22.3338 21.0213C22.2692 21.8672 21.8098 25.8275 21.5764 27.2268C21.2682 29.0753 20.6108 29.7637 18.7622 30.1739ZM26.7623 20.7019C26.2619 20.9422 25.4244 21.1224 24.6289 21.1612C23.7503 21.2037 23.3029 21.0593 23.1977 20.9705C23.1483 19.9199 23.5262 19.8102 23.9262 19.694C23.9891 19.6758 24.0504 19.6579 24.1096 19.6365C24.1464 19.6675 24.1867 19.6983 24.2308 19.7284C24.937 20.2106 26.1967 20.2627 27.975 19.8829L27.9945 19.8789C27.7547 20.1109 27.3442 20.4222 26.7623 20.7019Z" fill="white"/>
</svg>
