<svg width="30" height="32" viewBox="0 0 30 32" fill="none" xmlns="http://www.w3.org/2000/svg">
<path d="M14.8919 0C7.27604 0 7.75156 3.54129 7.75156 3.54129L7.76002 7.21017H15.0277V8.31167H4.8734C4.8734 8.31167 0 7.71904 0 15.9585C0 24.1983 4.25362 23.9061 4.25362 23.9061H6.79217V20.0825C6.79217 20.0825 6.65532 15.5216 10.9779 15.5216H18.1862C18.1862 15.5216 22.236 15.5917 22.236 11.3248V4.2697C22.236 4.2697 22.851 0 14.8919 0ZM10.8845 2.46725C11.0563 2.46708 11.2263 2.50323 11.385 2.57363C11.5437 2.64402 11.6879 2.74728 11.8094 2.87749C11.9308 3.0077 12.0271 3.16231 12.0928 3.33247C12.1584 3.50263 12.1921 3.68501 12.192 3.86915C12.1921 4.0533 12.1584 4.23567 12.0928 4.40584C12.0271 4.576 11.9308 4.73061 11.8094 4.86082C11.6879 4.99103 11.5437 5.09429 11.385 5.16468C11.2263 5.23508 11.0563 5.27122 10.8845 5.27106C10.7128 5.27122 10.5427 5.23508 10.384 5.16468C10.2253 5.09429 10.0811 4.99103 9.95966 4.86082C9.83822 4.73061 9.74192 4.576 9.67627 4.40584C9.61062 4.23567 9.5769 4.0533 9.57706 3.86915C9.5769 3.68501 9.61062 3.50263 9.67627 3.33247C9.74192 3.16231 9.83822 3.0077 9.95966 2.87749C10.0811 2.74728 10.2253 2.64402 10.384 2.57363C10.5427 2.50323 10.7128 2.46708 10.8845 2.46725Z" fill="url(#paint0_linear_2181_1146)"/>
<path d="M15.1082 32C22.7241 32 22.2486 28.4587 22.2486 28.4587L22.2401 24.7899H14.9723V23.6884H25.1266C25.1266 23.6884 30 24.2811 30 16.0413C30 7.80168 25.7464 8.09391 25.7464 8.09391H23.2078V11.9173C23.2078 11.9173 23.3447 16.4783 19.0221 16.4783H11.8138C11.8138 16.4783 7.76403 16.4081 7.76403 20.6752V27.7304C7.76403 27.7304 7.14919 32 15.1082 32ZM19.1156 29.533C18.9439 29.5332 18.7738 29.497 18.6151 29.4266C18.4564 29.3562 18.3122 29.253 18.1908 29.1228C18.0693 28.9925 17.973 28.8379 17.9074 28.6678C17.8417 28.4976 17.808 28.3152 17.8082 28.1311C17.808 27.9469 17.8417 27.7645 17.9073 27.5944C17.973 27.4242 18.0693 27.2696 18.1907 27.1393C18.3122 27.0091 18.4564 26.9058 18.6151 26.8354C18.7738 26.765 18.9439 26.7289 19.1156 26.7291C19.2873 26.7289 19.4574 26.765 19.6161 26.8354C19.7748 26.9058 19.919 27.0091 20.0405 27.1393C20.1619 27.2695 20.2582 27.4241 20.3239 27.5943C20.3895 27.7644 20.4232 27.9468 20.4231 28.131C20.4232 28.3151 20.3895 28.4975 20.3239 28.6676C20.2582 28.8378 20.1619 28.9924 20.0405 29.1226C19.919 29.2528 19.7748 29.3561 19.6161 29.4265C19.4574 29.4969 19.2873 29.5332 19.1156 29.533Z" fill="url(#paint1_linear_2181_1146)"/>
<defs>
<linearGradient id="paint0_linear_2181_1146" x1="3.8877" y1="3.85248" x2="25.1702" y2="23.6499" gradientUnits="userSpaceOnUse">
<stop stop-color="#387EB8"/>
<stop offset="1" stop-color="#366994"/>
</linearGradient>
<linearGradient id="paint1_linear_2181_1146" x1="12.0084" y1="13.0125" x2="29.0192" y2="28.01" gradientUnits="userSpaceOnUse">
<stop stop-color="#FFE052"/>
<stop offset="1" stop-color="#FFC331"/>
</linearGradient>
</defs>
</svg>
