<svg width="32" height="32" viewBox="0 0 32 32" fill="none" xmlns="http://www.w3.org/2000/svg">
<path d="M16.0001 18.8088C17.544 18.8088 18.7955 17.5457 18.7955 15.9876C18.7955 14.4295 17.544 13.1664 16.0001 13.1664C14.4562 13.1664 13.2046 14.4295 13.2046 15.9876C13.2046 17.5457 14.4562 18.8088 16.0001 18.8088Z" fill="#61DAFB"/>
<path d="M16.0001 18.8088C17.544 18.8088 18.7955 17.5457 18.7955 15.9876C18.7955 14.4295 17.544 13.1664 16.0001 13.1664C14.4562 13.1664 13.2046 14.4295 13.2046 15.9876C13.2046 17.5457 14.4562 18.8088 16.0001 18.8088Z" stroke="#61DAFB" stroke-width="1.6"/>
<path d="M16.0001 21.7676C24.2843 21.7676 31.0001 19.1798 31.0001 15.9876C31.0001 12.7954 24.2843 10.2076 16.0001 10.2076C7.71579 10.2076 1.00006 12.7954 1.00006 15.9876C1.00006 19.1798 7.71579 21.7676 16.0001 21.7676Z" stroke="#61DAFB" stroke-width="1.6"/>
<path d="M11.0401 18.8776C15.1822 26.1181 20.7607 30.6937 23.5 29.0976C26.2394 27.5015 25.1021 20.3381 20.96 13.0976C16.8179 5.85716 11.2394 1.28152 8.50005 2.87762C5.76073 4.47373 6.89795 11.6372 11.0401 18.8776Z" stroke="#61DAFB" stroke-width="1.6"/>
<path d="M11.0401 13.0976C6.89795 20.338 5.76074 27.5015 8.50005 29.0976C11.2394 30.6937 16.8179 26.1181 20.96 18.8776C25.1022 11.6372 26.2394 4.47372 23.5001 2.87761C20.7607 1.28151 15.1822 5.85715 11.0401 13.0976Z" stroke="#61DAFB" stroke-width="1.6"/>
</svg>
