<svg width="44" height="26" viewBox="0 0 44 26" fill="none" xmlns="http://www.w3.org/2000/svg">
<path d="M21.6726 0C15.893 0 12.281 2.88895 10.836 8.6663C13.0035 5.77736 15.5321 4.69441 18.4216 5.41637C20.0704 5.82831 21.2487 7.02454 22.5534 8.34814C24.6781 10.5043 27.1372 12.9997 32.5091 12.9997C38.2881 12.9997 41.9007 10.1108 43.3451 4.33288C41.1782 7.22183 38.6497 8.30532 35.7596 7.58335C34.1113 7.17142 32.933 5.97519 31.6284 4.65159C29.5036 2.49545 27.044 0 21.6726 0ZM10.836 12.9997C5.05703 12.9997 1.44448 15.8887 0 21.6666C2.16699 18.7776 4.6955 17.6941 7.58554 18.4166C9.23381 18.8291 10.4122 20.0248 11.7168 21.3479C13.8415 23.504 16.3012 26 21.6726 26C27.4521 26 31.0641 23.111 32.5091 17.3332C30.3416 20.2221 27.8131 21.3056 24.9236 20.5831C23.2748 20.1717 22.0964 18.9749 20.7918 17.6519C18.6671 15.4957 16.208 12.9997 10.836 12.9997Z" fill="#06B6D4"/>
</svg>
