<svg width="30" height="32" viewBox="0 0 30 32" fill="none" xmlns="http://www.w3.org/2000/svg">
<path d="M0 0H30V32H0V0Z" fill="#017ACB"/>
<path d="M14.4047 11.85H15.8438V14.5H11.9531V26.29L11.85 26.32C11.7094 26.36 9.85782 26.36 9.45938 26.315L9.14063 26.285V14.5H5.25V11.85L6.48282 11.835C7.15782 11.825 8.89219 11.825 10.3359 11.835C11.7797 11.845 13.6078 11.85 14.4047 11.85ZM25.3875 25.04C24.8157 25.685 24.2016 26.045 23.1797 26.34C22.7344 26.47 22.6594 26.475 21.6563 26.47C20.6532 26.465 20.5735 26.465 20.086 26.33C18.825 25.985 17.8078 25.31 17.1141 24.355C16.9172 24.085 16.5938 23.525 16.5938 23.455C16.5938 23.435 16.6406 23.39 16.7016 23.36C16.7625 23.33 16.8891 23.245 16.9922 23.18C17.0953 23.115 17.2828 22.995 17.4094 22.925C17.536 22.855 17.9016 22.625 18.2203 22.42C18.5391 22.215 18.8297 22.05 18.8625 22.05C18.8953 22.05 18.9563 22.12 19.0031 22.205C19.2844 22.71 19.9407 23.355 20.4047 23.575C20.6907 23.705 21.3235 23.85 21.6282 23.85C21.9094 23.85 22.425 23.72 22.7016 23.585C22.9969 23.44 23.1469 23.295 23.325 23.005C23.4469 22.8 23.461 22.745 23.4563 22.355C23.4563 21.995 23.4375 21.895 23.3438 21.73C23.0813 21.27 22.725 21.03 21.2813 20.35C19.7907 19.645 19.1203 19.225 18.5766 18.66C18.1735 18.24 18.0938 18.125 17.8406 17.6C17.5125 16.925 17.4703 16.705 17.4656 15.7C17.461 14.995 17.475 14.765 17.5453 14.525C17.6438 14.165 17.9625 13.47 18.1078 13.295C18.4078 12.92 18.5156 12.805 18.7266 12.62C19.3641 12.06 20.3578 11.69 21.3094 11.655C21.4172 11.655 21.7735 11.675 22.1063 11.7C23.0625 11.785 23.7141 12.035 24.3422 12.57C24.8157 12.97 25.5328 13.91 25.4625 14.035C25.4157 14.11 23.5453 15.44 23.4235 15.48C23.3485 15.505 23.2969 15.475 23.1938 15.345C22.5563 14.53 22.2985 14.355 21.6797 14.315C21.2391 14.285 21.0047 14.34 20.7094 14.55C20.4 14.77 20.25 15.105 20.25 15.57C20.2547 16.25 20.4985 16.57 21.3985 17.045C21.9797 17.35 22.4766 17.6 22.5141 17.6C22.5703 17.6 23.775 18.24 24.0891 18.44C25.5516 19.355 26.1469 20.295 26.3016 21.915C26.4141 23.135 26.0907 24.25 25.3875 25.04Z" fill="white"/>
</svg>
